<?xml version="1.0" encoding="UTF-8"?>
<svg xmlns="http://www.w3.org/2000/svg" xmlns:xlink="http://www.w3.org/1999/xlink" width="30pt" height="30pt" viewBox="0 0 30 30" version="1.1">
<g id="surface1">
<path style=" stroke:none;fill-rule:nonzero;fill:#FFFFFF;fill-opacity:1;" d="M 14.804688 2.960938 C 8.265625 2.960938 2.960938 8.261719 2.960938 14.800781 C 2.960938 21.34375 8.265625 26.644531 14.804688 26.644531 C 24.6875 26.644531 26.910156 17.472656 25.980469 12.828125 L 14.800781 12.828125 L 14.800781 16.777344 L 22.4375 16.777344 C 21.558594 20.179688 18.480469 22.699219 14.800781 22.699219 C 10.441406 22.699219 6.90625 19.164063 6.90625 14.800781 C 6.90625 10.441406 10.441406 6.90625 14.800781 6.90625 C 16.785156 6.90625 18.59375 7.644531 19.980469 8.851563 L 22.78125 6.046875 C 20.675781 4.128906 17.878906 2.960938 14.804688 2.960938 Z "/>
</g>
</svg>
